# xmcd
#
# Track frame offsets:
#	150
#	12640
#	23902
#	35647
#	50120
#	61267
#	73987
#	88027
#	100542
#	112865
#	123327
#	137660
#	145735
#	157435
#	167100
#	178855
#	190005
#	201415
#	210480
#	221570
#	233822
#	245282
#	257185
#	272075
#	282652
#
# Disc length: 3904
#
# Revision: 2
# Processed by: cddbd v1.5.1PL0 Copyright (c) Steve Scherf et al.
# Submitted via: EasyCDDAExtractor 7.0.5.1
# Normalized: r1:DSETVAR1
#
DISCID=840f3e19
DTITLE=Various Artist - The Country Music Jamboree - Disc 02
DYEAR=1999
DGENRE=Country and Western
TTITLE0=Hank Thompson - Oklahoma Hills
TTITLE1=Hank Thompson - Honky Tonk Girl
TTITLE2=Ferlin Husky - I Feel Better All Over
TTITLE3=Ferlin Husky - Hank's Song
TTITLE4=Jean Shepard - Satisfied Mind
TTITLE5=Jean Shepard - Beautiful Lies
TTITLE6=Tommy Collins - Those Old Love Letters From You
TTITLE7=Tommy Collins - High On A Hill Top
TTITLE8=Faron Young - Sweet Dreams
TTITLE9=Faron Young - Live Fast, Love Hard, Die Young
TTITLE10=Simon Crum - Country Music Is Here To Stay
TTITLE11=Merle Haggard - Walking The Floor Over You
TTITLE12=Merle Haggard - Sing A Sad Song
TTITLE13=George Jones - The Race Is On
TTITLE14=George Jones - She Thinks I Still Care
TTITLE15=George Jones and Melba Montgomery - Blue Moon Of Kentucky
TTITLE16=George Jones and Melba Montgomery - Please Be My Love
TTITLE17=Mac Wiseman - Cotton Fields
TTITLE18=Mac Wiseman - Just A Stand From A Yellow Curl
TTITLE19=Rose Maddox - White Lightning
TTITLE20=Rose Maddox - Let Those Brown Eyes Smile At Me
TTITLE21=Wanda Jackson - Silver Threads And Golden Needles
TTITLE22=Wanda Jackson - Weary Blues
TTITLE23=Tony Booth - Lonesome 7:7203
TTITLE24=Red Simpson - Truck Drivin' Man
EXTD=
EXTT0=
EXTT1=
EXTT2=
EXTT3=
EXTT4=
EXTT5=
EXTT6=
EXTT7=
EXTT8=
EXTT9=
EXTT10=
EXTT11=
EXTT12=
EXTT13=
EXTT14=
EXTT15=
EXTT16=
EXTT17=
EXTT18=
EXTT19=
EXTT20=
EXTT21=
EXTT22=
EXTT23=
EXTT24=
PLAYORDER=
